<?xml version="1.0" encoding="UTF-8" standalone="no"?>
<!-- Created with Inkscape (http://www.inkscape.org/) -->

<svg
   xmlns:dc="http://purl.org/dc/elements/1.1/"
   xmlns:cc="http://creativecommons.org/ns#"
   xmlns:rdf="http://www.w3.org/1999/02/22-rdf-syntax-ns#"
   xmlns:svg="http://www.w3.org/2000/svg"
   xmlns="http://www.w3.org/2000/svg"
   id="svg29831"
   version="1.1"
   viewBox="0 0 16.933333 16.933333"
   height="25"
   width="25">
<defs id="defs29825" />

<g transform="translate(0,-280.06667)" id="layer1">
      <g transform="matrix(0.99308565,0,0,0.99308565,-104.14524,81.741953)" id="g25310">
         <path id="path24992" d="m 110.9523,208.5002 c 0.19067,-1.56225 1.18424,-2.13723 2.4862,-2.2128" style="fill:none;fill-opacity:1;stroke:#41505a;stroke-width:0.84635907;stroke-linecap:butt;stroke-linejoin:miter;stroke-miterlimit:4;stroke-dasharray:none;stroke-opacity:1" />
         <g transform="matrix(0.35277777,0,0,-0.35277777,216.07457,636.91667)" id="g7816-3-6-0-8-5">
            <path id="path6880-5-6-9-2-2" d="m -270.79532,1212.4821 v -17.9842 h -40.40178 v 40.8342 h 40.03112 v -6.7954" style="fill:none;stroke:#41505a;stroke-width:7.5;stroke-linecap:round;stroke-linejoin:round;stroke-miterlimit:4;stroke-dasharray:none;stroke-opacity:1" />
         </g>
         <path style="opacity:1;fill:#41505a;fill-opacity:1;stroke:#41505a;stroke-width:0.80306929;stroke-linecap:round;stroke-linejoin:miter;stroke-miterlimit:4;stroke-dasharray:none;stroke-dashoffset:0;stroke-opacity:1" id="path24990-5" d="m 114.24228,208.69815 a 0.82466435,0.82466435 0 0 1 -0.8219,0.82466 0.82466435,0.82466435 0 0 1 -0.82741,-0.81914 0.82466435,0.82466435 0 0 1 0.81637,-0.83014 0.82466435,0.82466435 0 0 1 0.83287,0.81358" />
         <path style="fill:none;fill-opacity:1;stroke:#41505a;stroke-width:1.03047788;stroke-linecap:butt;stroke-linejoin:miter;stroke-miterlimit:4;stroke-dasharray:none;stroke-opacity:1" d="m 109.27007,208.23222 c 0.16348,-0.94022 0.45971,-1.66746 0.85972,-2.21848 0.75304,-1.03726 1.87392,-1.45007 3.16954,-1.48368" id="path24992-1-6" />
      </g>
</g>
</svg>